{
  "source": "C:\\Users\\Peter\\Desktop\\stuff\\MIUN\\quantitative_research\\video_compression\\videos\\BVI-HD\\BVI-HD_CDVL_videos\\ORIG\\Fountain_1920x1080_50fps.mp4",
  "output": "C:\\Users\\Peter\\Desktop\\stuff\\MIUN\\quantitative_research\\video_compression\\compressed_videos\\BVI-HD\\av1\\2\\Fountain_1920x1080_50fps_av1.mkv",
  "codec": "av1",
  "ok": "Input #0, mov,mp4,m4a,3gp,3g2,mj2, from 'C:\\Users\\Peter\\Desktop\\stuff\\MIUN\\quantitative_research\\video_compression\\videos\\BVI-HD\\BVI-HD_CDVL_videos\\ORIG\\Fountain_1920x1080_50fps.mp4':\n  Metadata:\n    major_brand     : isom\n    minor_version   : 512\n    compatible_brands: isomiso2avc1mp41\n    encoder         : Lavf54.28.101\n  Duration: 00:00:05.00, start: 0.000000, bitrate: 603457 kb/s\n  Stream #0:0[0x1](und): Video: h264 (High 4:4:4 Predictive) (avc1 / 0x31637661), yuv420p(progressive), 1920x1080, 603453 kb/s, 50 fps, 50 tbr, 50 tbn (default)\n    Metadata:\n      handler_name    : VideoHandler\n      vendor_id       : [0][0][0][0]\n[out#0/matroska @ 000001a71a21e9c0] Codec AVOption b:a (set bitrate (in bits/s)) has not been used for any stream. The most likely reason is either wrong type (e.g. a video option with no video streams) or that it is a private option of some decoder which was not actually used for any stream.\nStream mapping:\n  Stream #0:0 -> #0:0 (h264 (native) -> av1 (libsvtav1))\nPress [q] to stop, [?] for help\nSvt[info]: -------------------------------------------\nSvt[info]: SVT [version]:\tSVT-AV1 Encoder Lib v3.1.0-19-g6ecfe8ec\nSvt[info]: SVT [build]  :\tGCC 15.2.0\t 64 bit\nSvt[info]: LIB Build date: Aug 17 2025 11:37:13\nSvt[info]: -------------------------------------------\nSvt[info]: Level of Parallelism: 5\nSvt[info]: Number of PPCS 93\nSvt[info]: [asm level on system : up to avx2]\nSvt[info]: [asm level selected : up to avx2]\nSvt[info]: -------------------------------------------\nSvt[info]: SVT [config]: main profile\ttier (auto)\tlevel (auto)\nSvt[info]: SVT [config]: width / height / fps numerator / fps denominator \t\t: 1920 / 1080 / 50 / 1\nSvt[info]: SVT [config]: bit-depth / color format \t\t\t\t\t: 8 / YUV420\nSvt[info]: SVT [config]: preset / tune / pred struct \t\t\t\t\t: 4 / PSNR / random access\nSvt[info]: SVT [config]: gop size / mini-gop size / key-frame type \t\t\t: 321 / 16 / key frame\nSvt[info]: SVT [config]: BRC mode / target bitrate (kbps)\t\t\t\t: VBR / 2000 \nSvt[info]: SVT [config]: AQ mode / Variance Boost \t\t\t\t\t: 2 / 0\nSvt[info]: SVT [config]: sharpness / luminance-based QP bias \t\t\t\t: 0 / 0\nSvt[info]: SVT [config]: QP scale compress strength \t\t\t\t\t: 0\nSvt[info]: -------------------------------------------\nOutput #0, matroska, to 'C:\\Users\\Peter\\Desktop\\stuff\\MIUN\\quantitative_research\\video_compression\\compressed_videos\\BVI-HD\\av1\\2\\Fountain_1920x1080_50fps_av1.mkv':\n  Metadata:\n    major_brand     : isom\n    minor_version   : 512\n    compatible_brands: isomiso2avc1mp41\n    encoder         : Lavf62.3.100\n  Stream #0:0(und): Video: av1 (AV01 / 0x31305641), yuv420p(tv, progressive), 1920x1080, q=2-31, 2000 kb/s, 50 fps, 1k tbn (default)\n    Metadata:\n      encoder         : Lavc62.11.100 libsvtav1\n      handler_name    : VideoHandler\n      vendor_id       : [0][0][0][0]\n    Side data:\n      cpb: bitrate max/min/avg: 0/0/2000000 buffer size: 2000000 vbv_delay: N/A\nframe=    0 fps=0.0 q=0.0 size=       0KiB time=N/A bitrate=N/A speed=N/A elapsed=0:00:01.02    \nframe=    0 fps=0.0 q=0.0 size=       0KiB time=N/A bitrate=N/A speed=N/A elapsed=0:00:01.57    \nframe=    0 fps=0.0 q=0.0 size=       0KiB time=N/A bitrate=N/A speed=N/A elapsed=0:00:02.10    \nframe=    0 fps=0.0 q=0.0 size=       0KiB time=N/A bitrate=N/A speed=N/A elapsed=0:00:02.67    \nframe=    0 fps=0.0 q=0.0 size=       0KiB time=N/A bitrate=N/A speed=N/A elapsed=0:00:03.22    \nframe=    1 fps=0.3 q=34.0 size=       1KiB time=00:00:00.00 bitrate=N/A speed=   0x elapsed=0:00:03.75    \nframe=    1 fps=0.2 q=34.0 size=       1KiB time=00:00:00.00 bitrate=N/A speed=   0x elapsed=0:00:04.26    \nframe=    3 fps=0.6 q=51.0 size=       1KiB time=00:00:00.04 bitrate= 142.6kbits/s speed=0.00829x elapsed=0:00:04.82    \nframe=    6 fps=1.1 q=50.0 size=       1KiB time=00:00:00.10 bitrate=  57.0kbits/s speed=0.0187x elapsed=0:00:05.34    \nframe=    7 fps=1.2 q=49.0 size=       1KiB time=00:00:00.12 bitrate=  47.5kbits/s speed=0.0205x elapsed=0:00:05.86    \nframe=   10 fps=1.6 q=49.0 size=       1KiB time=00:00:00.18 bitrate=  31.7kbits/s speed=0.0279x elapsed=0:00:06.44    \nframe=   13 fps=1.8 q=47.0 size=       1KiB time=00:00:00.24 bitrate=  23.8kbits/s speed=0.0341x elapsed=0:00:07.02    \nframe=   16 fps=2.1 q=48.0 size=       1KiB time=00:00:00.28 bitrate=  20.4kbits/s speed=0.0368x elapsed=0:00:07.60    \nframe=   18 fps=2.2 q=48.0 size=       1KiB time=00:00:00.34 bitrate=  16.8kbits/s speed=0.0416x elapsed=0:00:08.17    \nframe=   19 fps=2.2 q=50.0 size=       1KiB time=00:00:00.36 bitrate=  15.8kbits/s speed=0.0414x elapsed=0:00:08.70    \nframe=   21 fps=2.3 q=48.0 size=       1KiB time=00:00:00.40 bitrate=  14.3kbits/s speed=0.0433x elapsed=0:00:09.24    \nframe=   22 fps=2.2 q=47.0 size=       1KiB time=00:00:00.42 bitrate=  13.6kbits/s speed=0.0428x elapsed=0:00:09.81    \nframe=   23 fps=2.2 q=50.0 size=       1KiB time=00:00:00.44 bitrate=  13.0kbits/s speed=0.0422x elapsed=0:00:10.41    \nframe=   26 fps=2.3 q=47.0 size=       1KiB time=00:00:00.50 bitrate=  11.4kbits/s speed=0.0451x elapsed=0:00:11.07    \nframe=   27 fps=2.3 q=50.0 size=       1KiB time=00:00:00.52 bitrate=  11.0kbits/s speed=0.0443x elapsed=0:00:11.73    \nframe=   28 fps=2.3 q=47.0 size=       1KiB time=00:00:00.54 bitrate=  10.6kbits/s speed=0.0436x elapsed=0:00:12.38    \nframe=   31 fps=2.4 q=49.0 size=       1KiB time=00:00:00.58 bitrate=   9.8kbits/s speed=0.0443x elapsed=0:00:13.08    \nframe=   34 fps=2.5 q=46.0 size=       1KiB time=00:00:00.66 bitrate=   8.6kbits/s speed=0.0484x elapsed=0:00:13.63    \nframe=   35 fps=2.5 q=50.0 size=       1KiB time=00:00:00.68 bitrate=   8.4kbits/s speed=0.0479x elapsed=0:00:14.20    \nframe=   36 fps=2.4 q=47.0 size=       1KiB time=00:00:00.70 bitrate=   8.1kbits/s speed=0.0472x elapsed=0:00:14.82    \nframe=   38 fps=2.5 q=47.0 size=       1KiB time=00:00:00.74 bitrate=   7.7kbits/s speed=0.048x elapsed=0:00:15.40    \nframe=   39 fps=2.4 q=48.0 size=       1KiB time=00:00:00.76 bitrate=   7.5kbits/s speed=0.0476x elapsed=0:00:15.97    \nframe=   42 fps=2.5 q=48.0 size=       1KiB time=00:00:00.82 bitrate=   7.0kbits/s speed=0.0497x elapsed=0:00:16.50    \nframe=   43 fps=2.5 q=50.0 size=       1KiB time=00:00:00.84 bitrate=   6.8kbits/s speed=0.0492x elapsed=0:00:17.07    \nframe=   46 fps=2.6 q=48.0 size=       1KiB time=00:00:00.88 bitrate=   6.5kbits/s speed=0.05x elapsed=0:00:17.60    \nframe=   48 fps=2.6 q=49.0 size=       1KiB time=00:00:00.94 bitrate=   6.1kbits/s speed=0.0516x elapsed=0:00:18.21    \nframe=   52 fps=2.8 q=49.0 size=       1KiB time=00:00:01.02 bitrate=   5.6kbits/s speed=0.0543x elapsed=0:00:18.78    \nframe=   54 fps=2.8 q=49.0 size=       1KiB time=00:00:01.06 bitrate=   5.4kbits/s speed=0.0549x elapsed=0:00:19.30    \nframe=   57 fps=2.9 q=39.0 size=       1KiB time=00:00:01.12 bitrate=   5.1kbits/s speed=0.0565x elapsed=0:00:19.83    \nframe=   59 fps=2.9 q=51.0 size=       1KiB time=00:00:01.16 bitrate=   4.9kbits/s speed=0.057x elapsed=0:00:20.34    \nframe=   64 fps=3.1 q=50.0 size=       1KiB time=00:00:01.26 bitrate=   4.5kbits/s speed=0.0604x elapsed=0:00:20.87    \nframe=   68 fps=3.2 q=50.0 size=       1KiB time=00:00:01.34 bitrate=   4.3kbits/s speed=0.0626x elapsed=0:00:21.39    \nframe=   71 fps=3.2 q=51.0 size=       1KiB time=00:00:01.40 bitrate=   4.1kbits/s speed=0.0639x elapsed=0:00:21.91    \nframe=   74 fps=3.3 q=50.0 size=       1KiB time=00:00:01.46 bitrate=   3.9kbits/s speed=0.065x elapsed=0:00:22.44    \nframe=   77 fps=3.3 q=49.0 size=       1KiB time=00:00:01.52 bitrate=   3.8kbits/s speed=0.0661x elapsed=0:00:22.98    \nframe=   81 fps=3.4 q=31.0 size=       1KiB time=00:00:01.60 bitrate=   3.6kbits/s speed=0.0681x elapsed=0:00:23.50    \nframe=   84 fps=3.5 q=50.0 size=       1KiB time=00:00:01.66 bitrate=   3.4kbits/s speed=0.069x elapsed=0:00:24.04    \nframe=   87 fps=3.5 q=50.0 size=       1KiB time=00:00:01.72 bitrate=   3.3kbits/s speed=0.07x elapsed=0:00:24.58    \nframe=   90 fps=3.6 q=50.0 size=       1KiB time=00:00:01.78 bitrate=   3.2kbits/s speed=0.0707x elapsed=0:00:25.18    \nframe=   92 fps=3.6 q=46.0 size=       1KiB time=00:00:01.82 bitrate=   3.1kbits/s speed=0.0708x elapsed=0:00:25.72    \nframe=   97 fps=3.7 q=36.0 size=       1KiB time=00:00:01.92 bitrate=   3.0kbits/s speed=0.0732x elapsed=0:00:26.24    \nframe=  100 fps=3.7 q=47.0 size=       1KiB time=00:00:01.98 bitrate=   2.9kbits/s speed=0.074x elapsed=0:00:26.76    \nframe=  102 fps=3.7 q=50.0 size=       1KiB time=00:00:02.02 bitrate=   2.8kbits/s speed=0.0741x elapsed=0:00:27.27    \nframe=  104 fps=3.7 q=50.0 size=       1KiB time=00:00:02.06 bitrate=   2.8kbits/s speed=0.0741x elapsed=0:00:27.78    \nframe=  107 fps=3.8 q=51.0 size=       1KiB time=00:00:02.12 bitrate=   2.7kbits/s speed=0.0749x elapsed=0:00:28.30    \nframe=  112 fps=3.9 q=51.0 size=       1KiB time=00:00:02.22 bitrate=   2.6kbits/s speed=0.077x elapsed=0:00:28.82    \nframe=  115 fps=3.9 q=51.0 size=       1KiB time=00:00:02.28 bitrate=   2.5kbits/s speed=0.0777x elapsed=0:00:29.35    \nframe=  118 fps=3.9 q=51.0 size=       1KiB time=00:00:02.34 bitrate=   2.4kbits/s speed=0.0783x elapsed=0:00:29.89    \nframe=  119 fps=3.9 q=49.0 size=       1KiB time=00:00:02.36 bitrate=   2.4kbits/s speed=0.0775x elapsed=0:00:30.43    \nframe=  123 fps=4.0 q=51.0 size=       1KiB time=00:00:02.44 bitrate=   2.3kbits/s speed=0.0788x elapsed=0:00:30.94    \nframe=  128 fps=4.1 q=52.0 size=       1KiB time=00:00:02.52 bitrate=   2.3kbits/s speed=0.0801x elapsed=0:00:31.46    \nframe=  131 fps=4.1 q=51.0 size=       1KiB time=00:00:02.60 bitrate=   2.2kbits/s speed=0.0813x elapsed=0:00:31.97    \nframe=  134 fps=4.1 q=52.0 size=       1KiB time=00:00:02.66 bitrate=   2.1kbits/s speed=0.0819x elapsed=0:00:32.49    \nframe=  137 fps=4.2 q=44.0 size=       1KiB time=00:00:02.72 bitrate=   2.1kbits/s speed=0.0824x elapsed=0:00:33.00    \nframe=  140 fps=4.2 q=52.0 size=       1KiB time=00:00:02.78 bitrate=   2.1kbits/s speed=0.0829x elapsed=0:00:33.52    \nframe=  145 fps=4.3 q=36.0 size=       1KiB time=00:00:02.88 bitrate=   2.0kbits/s speed=0.0845x elapsed=0:00:34.08    \nframe=  148 fps=4.3 q=44.0 size=       1KiB time=00:00:02.94 bitrate=   1.9kbits/s speed=0.0849x elapsed=0:00:34.61    \nframe=  151 fps=4.3 q=49.0 size=       1KiB time=00:00:03.00 bitrate=   1.9kbits/s speed=0.0854x elapsed=0:00:35.13    \nframe=  155 fps=4.3 q=51.0 size=       1KiB time=00:00:03.08 bitrate=   1.9kbits/s speed=0.0863x elapsed=0:00:35.70    \nframe=  159 fps=4.4 q=50.0 size=       1KiB time=00:00:03.16 bitrate=   1.8kbits/s speed=0.0872x elapsed=0:00:36.22    \nframe=  163 fps=4.4 q=51.0 size=       1KiB time=00:00:03.24 bitrate=   1.8kbits/s speed=0.0882x elapsed=0:00:36.74    \nframe=  169 fps=4.5 q=44.0 size=       1KiB time=00:00:03.36 bitrate=   1.7kbits/s speed=0.0902x elapsed=0:00:37.25    \nframe=  171 fps=4.5 q=51.0 size=       1KiB time=00:00:03.40 bitrate=   1.7kbits/s speed=0.09x elapsed=0:00:37.78    \nframe=  177 fps=4.6 q=35.0 size=       1KiB time=00:00:03.52 bitrate=   1.6kbits/s speed=0.0919x elapsed=0:00:38.29    \nframe=  181 fps=4.7 q=50.0 size=       1KiB time=00:00:03.60 bitrate=   1.6kbits/s speed=0.0927x elapsed=0:00:38.81    \nframe=  185 fps=4.7 q=45.0 size=       1KiB time=00:00:03.68 bitrate=   1.6kbits/s speed=0.0936x elapsed=0:00:39.33    \nframe=  189 fps=4.7 q=49.0 size=       1KiB time=00:00:03.76 bitrate=   1.5kbits/s speed=0.0943x elapsed=0:00:39.86    \nframe=  193 fps=4.8 q=37.0 size=       1KiB time=00:00:03.84 bitrate=   1.5kbits/s speed=0.095x elapsed=0:00:40.40    \nframe=  197 fps=4.8 q=50.0 size=       1KiB time=00:00:03.92 bitrate=   1.5kbits/s speed=0.0958x elapsed=0:00:40.91    \nframe=  201 fps=4.9 q=46.0 size=       1KiB time=00:00:04.00 bitrate=   1.4kbits/s speed=0.0966x elapsed=0:00:41.42    \nframe=  205 fps=4.9 q=49.0 size=       1KiB time=00:00:04.08 bitrate=   1.4kbits/s speed=0.0973x elapsed=0:00:41.95    \nframe=  209 fps=4.9 q=37.0 size=       1KiB time=00:00:04.16 bitrate=   1.4kbits/s speed=0.098x elapsed=0:00:42.45    \nframe=  213 fps=5.0 q=50.0 size=       1KiB time=00:00:04.24 bitrate=   1.3kbits/s speed=0.0986x elapsed=0:00:42.99    \nframe=  217 fps=5.0 q=46.0 size=       1KiB time=00:00:04.32 bitrate=   1.3kbits/s speed=0.0993x elapsed=0:00:43.50    \nframe=  221 fps=5.0 q=50.0 size=       1KiB time=00:00:04.40 bitrate=   1.3kbits/s speed=0.0999x elapsed=0:00:44.03    \nframe=  227 fps=5.1 q=55.0 size=       1KiB time=00:00:04.52 bitrate=   1.3kbits/s speed=0.101x elapsed=0:00:44.57    \nframe=  233 fps=5.2 q=49.0 size=       1KiB time=00:00:04.64 bitrate=   1.2kbits/s speed=0.103x elapsed=0:00:45.09    \nframe=  235 fps=5.2 q=55.0 size=       1KiB time=00:00:04.68 bitrate=   1.2kbits/s speed=0.103x elapsed=0:00:45.62    \nframe=  239 fps=5.2 q=55.0 size=       1KiB time=00:00:04.76 bitrate=   1.2kbits/s speed=0.103x elapsed=0:00:46.15    \n[out#0/matroska @ 000001a71a21e9c0] video:1156KiB audio:0KiB subtitle:0KiB other streams:0KiB global headers:0KiB muxing overhead: 0.160476%\nframe=  250 fps=5.4 q=55.0 Lsize=    1158KiB time=00:00:04.98 bitrate=1905.0kbits/s speed=0.107x elapsed=0:00:46.66    \n",
  "seconds": 47.23538875579834,
  "probe_out": {}
}